<svg width="138" height="32" viewBox="0 0 138 32" fill="none" xmlns="http://www.w3.org/2000/svg">
<g filter="url(#filter0_d_50632_126)">
<path d="M8.17871 1.67188V23H4.50195V1.67188H8.17871ZM16.8799 11.0029V13.918H7.24121V11.0029H16.8799ZM18.0957 1.67188V4.60156H7.24121V1.67188H18.0957ZM24.4531 7.15039V23H20.9082V7.15039H24.4531ZM20.6738 2.99023C20.6738 2.45312 20.8496 2.00879 21.2012 1.65723C21.5625 1.2959 22.0605 1.11523 22.6953 1.11523C23.3203 1.11523 23.8135 1.2959 24.1748 1.65723C24.5361 2.00879 24.7168 2.45312 24.7168 2.99023C24.7168 3.51758 24.5361 3.95703 24.1748 4.30859C23.8135 4.66016 23.3203 4.83594 22.6953 4.83594C22.0605 4.83594 21.5625 4.66016 21.2012 4.30859C20.8496 3.95703 20.6738 3.51758 20.6738 2.99023ZM32.0996 0.5V23H28.5547V0.5H32.0996ZM39.4971 10.373V23H35.9668V7.15039H39.292L39.4971 10.373ZM38.9258 14.4893L37.7246 14.4746C37.7246 13.3809 37.8613 12.3701 38.1348 11.4424C38.4082 10.5146 38.8086 9.70898 39.3359 9.02539C39.8633 8.33203 40.5176 7.7998 41.2988 7.42871C42.0898 7.04785 43.0029 6.85742 44.0381 6.85742C44.7607 6.85742 45.4199 6.96484 46.0156 7.17969C46.6211 7.38477 47.1436 7.71191 47.583 8.16113C48.0322 8.61035 48.374 9.18652 48.6084 9.88965C48.8525 10.5928 48.9746 11.4424 48.9746 12.4385V23H45.4443V12.7461C45.4443 11.9746 45.3271 11.3691 45.0928 10.9297C44.8682 10.4902 44.541 10.1777 44.1113 9.99219C43.6914 9.79688 43.1885 9.69922 42.6025 9.69922C41.9385 9.69922 41.3721 9.82617 40.9033 10.0801C40.4443 10.334 40.0684 10.6807 39.7754 11.1201C39.4824 11.5596 39.2676 12.0674 39.1309 12.6436C38.9941 13.2197 38.9258 13.835 38.9258 14.4893ZM48.7549 13.5518L47.0996 13.918C47.0996 12.9609 47.2314 12.0576 47.4951 11.208C47.7686 10.3486 48.1641 9.59668 48.6816 8.95215C49.209 8.29785 49.8584 7.78516 50.6299 7.41406C51.4014 7.04297 52.2852 6.85742 53.2812 6.85742C54.0918 6.85742 54.8145 6.96973 55.4492 7.19434C56.0938 7.40918 56.6406 7.75098 57.0898 8.21973C57.5391 8.68848 57.8809 9.29883 58.1152 10.0508C58.3496 10.793 58.4668 11.6914 58.4668 12.7461V23H54.9219V12.7314C54.9219 11.9307 54.8047 11.3105 54.5703 10.8711C54.3457 10.4316 54.0234 10.1289 53.6035 9.96289C53.1836 9.78711 52.6807 9.69922 52.0947 9.69922C51.5479 9.69922 51.0645 9.80176 50.6445 10.0068C50.2344 10.2021 49.8877 10.4805 49.6045 10.8418C49.3213 11.1934 49.1064 11.5986 48.96 12.0576C48.8232 12.5166 48.7549 13.0146 48.7549 13.5518ZM61.4258 15.251V14.9141C61.4258 13.7715 61.5918 12.7119 61.9238 11.7354C62.2559 10.749 62.7344 9.89453 63.3594 9.17188C63.9941 8.43945 64.7656 7.87305 65.6738 7.47266C66.5918 7.0625 67.627 6.85742 68.7793 6.85742C69.9414 6.85742 70.9766 7.0625 71.8848 7.47266C72.8027 7.87305 73.5791 8.43945 74.2139 9.17188C74.8486 9.89453 75.332 10.749 75.6641 11.7354C75.9961 12.7119 76.1621 13.7715 76.1621 14.9141V15.251C76.1621 16.3936 75.9961 17.4531 75.6641 18.4297C75.332 19.4062 74.8486 20.2607 74.2139 20.9932C73.5791 21.7158 72.8076 22.2822 71.8994 22.6924C70.9912 23.0928 69.9609 23.293 68.8086 23.293C67.6465 23.293 66.6064 23.0928 65.6885 22.6924C64.7803 22.2822 64.0088 21.7158 63.374 20.9932C62.7393 20.2607 62.2559 19.4062 61.9238 18.4297C61.5918 17.4531 61.4258 16.3936 61.4258 15.251ZM64.9561 14.9141V15.251C64.9561 15.9639 65.0293 16.6377 65.1758 17.2725C65.3223 17.9072 65.5518 18.4639 65.8643 18.9424C66.1768 19.4209 66.5771 19.7969 67.0654 20.0703C67.5537 20.3438 68.1348 20.4805 68.8086 20.4805C69.4629 20.4805 70.0293 20.3438 70.5078 20.0703C70.9961 19.7969 71.3965 19.4209 71.709 18.9424C72.0215 18.4639 72.251 17.9072 72.3975 17.2725C72.5537 16.6377 72.6318 15.9639 72.6318 15.251V14.9141C72.6318 14.2109 72.5537 13.5469 72.3975 12.9219C72.251 12.2871 72.0166 11.7256 71.6943 11.2373C71.3818 10.749 70.9814 10.3682 70.4932 10.0947C70.0146 9.81152 69.4434 9.66992 68.7793 9.66992C68.1152 9.66992 67.5391 9.81152 67.0508 10.0947C66.5723 10.3682 66.1768 10.749 65.8643 11.2373C65.5518 11.7256 65.3223 12.2871 65.1758 12.9219C65.0293 13.5469 64.9561 14.2109 64.9561 14.9141ZM86.3867 7.15039V9.72852H77.4512V7.15039H86.3867ZM80.0293 3.26855H83.5596V18.6201C83.5596 19.1084 83.6279 19.4844 83.7646 19.748C83.9111 20.002 84.1113 20.1729 84.3652 20.2607C84.6191 20.3486 84.917 20.3926 85.2588 20.3926C85.5029 20.3926 85.7373 20.3779 85.9619 20.3486C86.1865 20.3193 86.3672 20.29 86.5039 20.2607L86.5186 22.9561C86.2256 23.0439 85.8838 23.1221 85.4932 23.1904C85.1123 23.2588 84.6729 23.293 84.1748 23.293C83.3643 23.293 82.6465 23.1514 82.0215 22.8682C81.3965 22.5752 80.9082 22.1016 80.5566 21.4473C80.2051 20.793 80.0293 19.9238 80.0293 18.8398V3.26855ZM96.0986 23.293C94.9268 23.293 93.8672 23.1025 92.9199 22.7217C91.9824 22.3311 91.1816 21.7891 90.5176 21.0957C89.8633 20.4023 89.3604 19.5869 89.0088 18.6494C88.6572 17.7119 88.4814 16.7012 88.4814 15.6172V15.0312C88.4814 13.791 88.6621 12.668 89.0234 11.6621C89.3848 10.6562 89.8877 9.79688 90.5322 9.08398C91.1768 8.36133 91.9385 7.80957 92.8174 7.42871C93.6963 7.04785 94.6484 6.85742 95.6738 6.85742C96.8066 6.85742 97.7979 7.04785 98.6475 7.42871C99.4971 7.80957 100.2 8.34668 100.757 9.04004C101.323 9.72363 101.743 10.5391 102.017 11.4863C102.3 12.4336 102.441 13.4785 102.441 14.6211V16.1299H90.1953V13.5957H98.9551V13.3174C98.9355 12.6826 98.8086 12.0869 98.5742 11.5303C98.3496 10.9736 98.0029 10.5244 97.5342 10.1826C97.0654 9.84082 96.4404 9.66992 95.6592 9.66992C95.0732 9.66992 94.5508 9.79688 94.0918 10.0508C93.6426 10.2949 93.2666 10.6514 92.9639 11.1201C92.6611 11.5889 92.4268 12.1553 92.2607 12.8193C92.1045 13.4736 92.0264 14.2109 92.0264 15.0312V15.6172C92.0264 16.3105 92.1191 16.9551 92.3047 17.5508C92.5 18.1367 92.7832 18.6494 93.1543 19.0889C93.5254 19.5283 93.9746 19.875 94.502 20.1289C95.0293 20.373 95.6299 20.4951 96.3037 20.4951C97.1533 20.4951 97.9102 20.3242 98.5742 19.9824C99.2383 19.6406 99.8145 19.1572 100.303 18.5322L102.163 20.334C101.821 20.832 101.377 21.3105 100.83 21.7695C100.283 22.2188 99.6143 22.585 98.8232 22.8682C98.042 23.1514 97.1338 23.293 96.0986 23.293ZM108.755 0.5V23H105.21V0.5H108.755ZM118.599 7.15039L111.699 14.7969L107.92 18.6641L106.997 15.6758L109.854 12.1455L114.336 7.15039H118.599ZM115.098 23L109.956 15.5586L112.183 13.083L119.185 23H115.098ZM129.775 19.8213V12.2627C129.775 11.6963 129.673 11.208 129.468 10.7979C129.263 10.3877 128.95 10.0703 128.53 9.8457C128.12 9.62109 127.603 9.50879 126.978 9.50879C126.401 9.50879 125.903 9.60645 125.483 9.80176C125.063 9.99707 124.736 10.2607 124.502 10.5928C124.268 10.9248 124.15 11.3008 124.15 11.7207H120.635C120.635 11.0957 120.786 10.4902 121.089 9.9043C121.392 9.31836 121.831 8.7959 122.407 8.33691C122.983 7.87793 123.672 7.5166 124.473 7.25293C125.273 6.98926 126.172 6.85742 127.168 6.85742C128.359 6.85742 129.414 7.05762 130.332 7.45801C131.26 7.8584 131.987 8.46387 132.515 9.27441C133.052 10.0752 133.32 11.0811 133.32 12.292V19.3379C133.32 20.0605 133.369 20.71 133.467 21.2861C133.574 21.8525 133.726 22.3457 133.921 22.7656V23H130.303C130.137 22.6191 130.005 22.1357 129.907 21.5498C129.819 20.9541 129.775 20.3779 129.775 19.8213ZM130.288 13.3613L130.317 15.5439H127.783C127.129 15.5439 126.553 15.6074 126.055 15.7344C125.557 15.8516 125.142 16.0273 124.81 16.2617C124.478 16.4961 124.229 16.7793 124.062 17.1113C123.896 17.4434 123.813 17.8193 123.813 18.2393C123.813 18.6592 123.911 19.0449 124.106 19.3965C124.302 19.7383 124.585 20.0068 124.956 20.2021C125.337 20.3975 125.796 20.4951 126.333 20.4951C127.056 20.4951 127.686 20.3486 128.223 20.0557C128.77 19.7529 129.199 19.3867 129.512 18.957C129.824 18.5176 129.99 18.1025 130.01 17.7119L131.152 19.2793C131.035 19.6797 130.835 20.1094 130.552 20.5684C130.269 21.0273 129.897 21.4668 129.438 21.8867C128.989 22.2969 128.447 22.6338 127.812 22.8975C127.188 23.1611 126.465 23.293 125.645 23.293C124.609 23.293 123.687 23.0879 122.876 22.6777C122.065 22.2578 121.431 21.6963 120.972 20.9932C120.513 20.2803 120.283 19.4746 120.283 18.5762C120.283 17.7363 120.439 16.9941 120.752 16.3496C121.074 15.6953 121.543 15.1484 122.158 14.709C122.783 14.2695 123.545 13.9375 124.443 13.7129C125.342 13.4785 126.367 13.3613 127.52 13.3613H130.288Z" fill="white"/>
</g>
<defs>
<filter id="filter0_d_50632_126" x="0.501953" y="0.5" width="137.419" height="30.793" filterUnits="userSpaceOnUse" color-interpolation-filters="sRGB">
<feFlood flood-opacity="0" result="BackgroundImageFix"/>
<feColorMatrix in="SourceAlpha" type="matrix" values="0 0 0 0 0 0 0 0 0 0 0 0 0 0 0 0 0 0 127 0" result="hardAlpha"/>
<feOffset dy="4"/>
<feGaussianBlur stdDeviation="2"/>
<feComposite in2="hardAlpha" operator="out"/>
<feColorMatrix type="matrix" values="0 0 0 0 0 0 0 0 0 0 0 0 0 0 0 0 0 0 0.25 0"/>
<feBlend mode="normal" in2="BackgroundImageFix" result="effect1_dropShadow_50632_126"/>
<feBlend mode="normal" in="SourceGraphic" in2="effect1_dropShadow_50632_126" result="shape"/>
</filter>
</defs>
</svg>
